# xmcd CD database file
#
# Track frame offsets:
#	150
#	90132
#	153990
#	191782
#	212609
#	233359
#	253071
#	275916
#	317381
#	346410
#
# Disc length: 4815 seconds
#
# Revision: 3
# Processed by: cddbd v1.5.1PL2 Copyright (c) Steve Scherf et al.
# Submitted via: CDex 1.51
#
DISCID=8012cd0a
DTITLE=Various Artist - Soul Jazz - Ballin'
DYEAR=1960
DGENRE=Jazz
TTITLE0=All Morning Long
TTITLE1=All Day Long
TTITLE2=Lights Out
TTITLE3=I See Your Face Before Me
TTITLE4=While My Lady Sleeps
TTITLE5=All of Me
TTITLE6=When Your Lover Has Gone
TTITLE7=There Are Such Things
TTITLE8=Round Midnight
TTITLE9=Imagination
EXTD=YEAR: 1960
EXTT0=
EXTT1=
EXTT2=
EXTT3=
EXTT4=
EXTT5=
EXTT6=
EXTT7=
EXTT8=
EXTT9=
PLAYORDER=
